<?xml version="1.0" encoding="utf-8"?>
<!-- Generator: Adobe Illustrator 15.0.0, SVG Export Plug-In . SVG Version: 6.00 Build 0)  -->
<!DOCTYPE svg PUBLIC "-//W3C//DTD SVG 1.1//EN" "http://www.w3.org/Graphics/SVG/1.1/DTD/svg11.dtd">
<svg version="1.1" id="图层_1" xmlns="http://www.w3.org/2000/svg" xmlns:xlink="http://www.w3.org/1999/xlink" x="0px" y="0px"
	 width="595.281px" height="841.89px" viewBox="0 0 595.281 841.89" enable-background="new 0 0 595.281 841.89"
	 xml:space="preserve">
<g enable-background="new    ">
	<path fill="#2388BE" d="M32.176,397.544l0.61-2.291c4.927-0.477,9.141-1.157,12.641-2.042c-0.838,2.383-1.745,5.498-2.718,9.345
		l-3.849,14.341l4.687,0.255c2.172,0.102,4.541-0.44,7.105-1.63c2.564-1.188,4.856-3.275,6.876-6.264
		c2.021-2.987,3.031-6.213,3.031-9.677c0-3.429-1.229-6.145-3.688-8.148c-2.459-2.003-6.215-3.005-11.269-3.005
		c-5.766,0-11.413,1.436-16.942,4.304c-5.529,2.869-9.793,6.536-12.794,11.001c-3.002,4.465-4.502,8.87-4.502,13.216
		c0,2.139,0.39,3.997,1.171,5.576c0.78,1.579,2.172,3.132,4.176,4.66c1.663,1.222,2.496,2.411,2.496,3.564
		c0,0.747-0.273,1.375-0.819,1.885c-0.546,0.509-1.193,0.764-1.943,0.764c-2.012,0-3.956-1.375-5.832-4.125s-2.813-6.23-2.813-10.44
		c0-7.707,2.954-14.734,8.861-21.084c7.741-8.353,18.13-12.528,31.168-12.528c4.957,0,9.022,0.646,12.197,1.936
		c3.174,1.29,5.551,3.056,7.13,5.296c1.579,2.241,2.368,4.669,2.368,7.283c0,3.327-1.108,6.595-3.324,9.804
		c-2.216,3.208-5.481,5.798-9.794,7.767c-4.313,1.969-9.109,2.953-14.387,2.953c-0.813,0-2.081-0.051-3.806-0.152l-4.095,15.849
		c-0.678,2.681-1.441,5.325-2.288,7.937c2.644,0.645,4.948,0.966,6.914,0.966c2.474,0,5.134-0.476,7.981-1.426l-0.61,2.852
		c-2.646,0.713-4.884,1.069-6.715,1.069c-1.763,0-4.341-0.187-7.733-0.56c-2.713-0.34-4.917-0.51-6.613-0.51
		c-3.29,0-6.665,0.39-10.124,1.171l0.611-2.699c3.528-0.576,5.938-1.408,7.227-2.495c1.832-1.527,3.324-4.6,4.478-9.218
		l7.681-30.506c0.339-1.426,0.508-2.427,0.508-3.005c0-0.543-0.22-1.026-0.661-1.451c-0.441-0.424-0.967-0.637-1.577-0.637
		C32.956,397.443,32.617,397.477,32.176,397.544z"/>
	<path fill="#2388BE" d="M92.083,433.5l1.681,2.241c-8.319,7.911-15.449,11.866-21.39,11.866c-2.411,0-4.252-0.814-5.525-2.444
		c-1.273-1.63-1.91-4.244-1.91-7.843c0-7.266,2.207-14.497,6.621-21.695c4.957-8.183,10.881-12.274,17.773-12.274
		c2.411,0,4.252,0.604,5.526,1.809c1.273,1.205,1.91,2.86,1.91,4.965c0,2.208-0.764,4.38-2.292,6.52
		c-1.528,2.139-4.261,4.362-8.2,6.671c-1.969,1.121-6.18,3.141-12.63,6.061c-0.306,1.834-0.458,3.583-0.458,5.246
		c0,2.411,0.382,4.092,1.146,5.041c0.764,0.951,1.875,1.427,3.336,1.427c1.392,0,2.919-0.391,4.583-1.172
		C84.495,438.865,87.771,436.726,92.083,433.5z M74.258,426.116c5.466-2.445,9.574-5.076,12.324-7.895
		c1.867-1.969,2.801-3.921,2.801-5.856c0-1.459-0.382-2.623-1.146-3.488c-0.764-0.866-1.757-1.299-2.979-1.299
		c-1.256,0-2.479,0.476-3.667,1.426c-1.596,1.257-2.937,3.157-4.023,5.704C76.006,418.443,74.903,422.245,74.258,426.116z"/>
	<path fill="#2388BE" d="M126.103,403.453c3.327,0,6.094,1.324,8.301,3.972c2.207,2.648,3.311,6.333,3.311,11.052
		c0,7.537-2.648,14.303-7.945,20.295s-10.898,8.988-16.806,8.988c-3.633,0-6.562-1.188-8.785-3.564
		c-2.224-2.376-3.336-5.619-3.336-9.728c0-7.13,2.037-13.716,6.111-19.76C112.08,407.205,118.463,403.453,126.103,403.453z
		 M121.774,407.272c-2.886,0-5.679,2.063-8.378,6.188s-4.049,9.821-4.049,17.087c0,4.414,0.832,7.894,2.496,10.439
		c1.222,1.868,2.852,2.802,4.889,2.802c2.852,0,5.449-1.766,7.792-5.297c2.987-4.583,4.481-10.27,4.481-17.061
		c0-5.093-0.688-8.726-2.063-10.898S123.844,407.272,121.774,407.272z"/>
	<path fill="#2388BE" d="M143.316,416.083l-1.986-2.037c3.089-3.7,6.162-6.434,9.218-8.199s5.704-2.648,7.945-2.648
		c0.848,0,1.519,0.213,2.012,0.637c0.492,0.425,0.738,1.044,0.738,1.858c0,0.985-0.11,1.995-0.331,3.03
		c-0.222,1.036-0.909,3.489-2.063,7.359c5.195-5.194,8.742-8.403,10.644-9.625c3.191-2.071,6.111-3.107,8.76-3.107
		c1.731,0,3.191,0.815,4.38,2.445c1.188,1.629,1.782,4.092,1.782,7.384c0,8.218-2.562,16.026-7.685,23.427
		c-5.123,7.402-10.79,11.103-16.998,11.103c-2.443,0-4.885-0.662-7.328-1.986l-4.352,16.807c-0.272,1.019-0.408,1.85-0.408,2.495
		c0,1.256,0.475,2.156,1.426,2.699c1.459,0.849,4.532,1.545,9.218,2.088l-0.662,2.547c-5.467-0.441-9.761-0.662-12.885-0.662
		c-3.226,0-7.402,0.221-12.528,0.662l0.662-2.547c2.58-0.271,4.456-0.984,5.627-2.139s2.114-3.208,2.827-6.162l9.218-38.654
		c1.732-7.197,2.598-11.204,2.598-12.02c0-0.882-0.425-1.323-1.273-1.323C150.378,409.513,147.526,411.703,143.316,416.083z
		 M153.634,440.121c2.679,2.683,5.426,4.023,8.24,4.023c4.068,0,7.638-3.175,10.706-9.523s4.603-12.545,4.603-18.589
		c0-1.936-0.432-3.403-1.296-4.405c-0.864-1.001-2.024-1.503-3.481-1.503c-1.626,0-3.456,0.799-5.488,2.394
		c-3.151,2.479-5.557,4.94-7.216,7.385c-1.186,1.766-2.304,4.821-3.354,9.167L153.634,440.121z"/>
	<path fill="#2388BE" d="M209.625,434.009l1.731,1.833c-2.648,2.988-5.78,5.713-9.396,8.174c-3.616,2.462-6.595,3.692-8.938,3.692
		c-1.053,0-1.918-0.399-2.597-1.196c-0.68-0.798-1.019-1.893-1.019-3.285c0-2.716,1.051-8.353,3.153-16.908l5.493-22.357
		c2-8.08,3.679-13.496,5.036-16.246c2.103-4.16,5.078-7.39,8.926-9.689s7.909-3.449,12.182-3.449c1.458,0,2.602,0.351,3.433,1.051
		c0.831,0.701,1.246,1.547,1.246,2.538c0,1.096-0.407,1.993-1.218,2.693c-0.812,0.701-1.996,1.051-3.552,1.051
		c-1.015,0-2.453-0.169-4.313-0.509c-1.624-0.271-3.13-0.407-4.517-0.407c-1.387,0-2.436,0.287-3.146,0.861
		c-0.981,0.812-1.869,2.518-2.664,5.12c-0.795,2.602-2.089,7.737-3.882,15.408l-5.081,21.338
		c-2.513,10.695-3.769,16.28-3.769,16.756c0,1.087,0.39,1.63,1.171,1.63c0.747,0,1.833-0.441,3.26-1.324
		C203.984,439.017,206.805,436.759,209.625,434.009z"/>
	<path fill="#2388BE" d="M240.13,433.5l1.681,2.241c-8.319,7.911-15.449,11.866-21.39,11.866c-2.411,0-4.252-0.814-5.525-2.444
		c-1.273-1.63-1.91-4.244-1.91-7.843c0-7.266,2.207-14.497,6.621-21.695c4.957-8.183,10.881-12.274,17.773-12.274
		c2.411,0,4.252,0.604,5.526,1.809c1.273,1.205,1.91,2.86,1.91,4.965c0,2.208-0.764,4.38-2.292,6.52
		c-1.528,2.139-4.261,4.362-8.2,6.671c-1.969,1.121-6.18,3.141-12.63,6.061c-0.306,1.834-0.458,3.583-0.458,5.246
		c0,2.411,0.382,4.092,1.146,5.041c0.764,0.951,1.875,1.427,3.336,1.427c1.392,0,2.919-0.391,4.583-1.172
		C232.542,438.865,235.818,436.726,240.13,433.5z M222.306,426.116c5.466-2.445,9.574-5.076,12.324-7.895
		c1.867-1.969,2.801-3.921,2.801-5.856c0-1.459-0.382-2.623-1.146-3.488c-0.764-0.866-1.757-1.299-2.979-1.299
		c-1.256,0-2.479,0.476-3.667,1.426c-1.596,1.257-2.937,3.157-4.023,5.704C224.054,418.443,222.95,422.245,222.306,426.116z"/>
	<path fill="#2388BE" d="M302.747,447.149c3.057,2.852,5.893,5.602,8.51,8.25c4.722,4.753,8.017,7.825,9.885,9.218
		c2.649,1.969,4.942,3.318,6.879,4.049c1.937,0.729,3.702,1.095,5.3,1.095c1.358,0,2.581-0.203,3.668-0.611
		c1.087-0.407,2.073-1.019,2.956-1.833c0.51-0.476,1.172-1.511,1.987-3.106c0.884-1.731,2.004-2.598,3.363-2.598
		c0.68,0,1.273,0.263,1.783,0.79c0.509,0.525,0.765,1.146,0.765,1.858c0,1.833-1.377,3.599-4.129,5.297
		c-3.839,2.376-8.222,3.564-13.147,3.564c-3.296,0-5.98-0.34-8.053-1.018c-2.854-0.95-5.563-2.324-8.128-4.123
		c-2.565-1.798-5.988-4.92-10.27-9.365c-3.907-4.004-6.464-6.541-7.67-7.609c-1.206-1.069-2.403-1.96-3.592-2.672
		c-0.646-0.408-2.191-1.086-4.638-2.036c-4.757-1.9-8.376-4.75-10.855-8.551c-2.48-3.801-3.72-8.381-3.72-13.742
		c0-9.229,3.177-17.984,9.532-26.264c6.354-8.279,14.561-12.42,24.621-12.42c4.791,0,8.902,0.959,12.335,2.875
		c3.432,1.917,6.142,4.741,8.13,8.473c1.987,3.732,2.982,7.938,2.982,12.62c0,8.312-2.693,16.334-8.079,24.068
		C317.774,441.093,310.97,445.69,302.747,447.149z M305.041,388.989c-3.944,0-7.572,1.163-10.888,3.488
		c-3.315,2.326-6.026,5.959-8.133,10.899c-2.108,4.939-3.162,10.669-3.162,17.188c0,7.47,1.649,13.233,4.947,17.29
		c3.297,4.058,7.411,6.086,12.34,6.086c3.672,0,7.147-1.205,10.428-3.616c3.281-2.41,5.984-6.204,8.109-11.382
		c2.124-5.178,3.187-11.128,3.187-17.851c0-6.959-1.623-12.383-4.87-16.271C313.753,390.933,309.766,388.989,305.041,388.989z"/>
	<path fill="#2388BE" d="M368.805,404.777h7.252l-4.787,17.799c-2.818,10.337-4.228,16.219-4.228,17.646
		c0,0.646,0.153,1.138,0.459,1.477c0.306,0.34,0.645,0.51,1.019,0.51c0.576,0,1.256-0.255,2.037-0.764
		c1.12-0.781,3.241-2.75,6.365-5.908l1.681,1.885c-6.824,7.097-11.849,10.644-15.074,10.644c-1.087,0-2.012-0.416-2.775-1.247
		c-0.764-0.832-1.146-2.012-1.146-3.54c0-1.765,0.368-4.125,1.104-7.079c-3.021,3.463-6.752,6.502-11.195,9.116
		c-2.952,1.731-5.514,2.598-7.685,2.598c-1.188,0-2.121-0.392-2.799-1.173c-0.679-0.781-1.018-2.023-1.018-3.723
		c0-1.326,0.152-2.754,0.458-4.283c0.441-2.143,1.562-6.442,3.361-12.902c2.274-8.193,3.412-13.106,3.412-14.738
		c0-0.952-0.34-1.428-1.019-1.428c-0.611,0-1.443,0.314-2.495,0.942c-1.053,0.629-2.853,2.147-5.398,4.558l-2.241-1.782
		c4.55-4.074,8.021-6.748,10.415-8.021c2.394-1.272,4.32-1.909,5.78-1.909c0.814,0,1.477,0.297,1.986,0.893
		c0.509,0.595,0.764,1.521,0.764,2.778c0,2.347-1.223,8.109-3.667,17.289c-2.173,8.262-3.259,12.971-3.259,14.126
		c0,0.714,0.229,1.325,0.687,1.836c0.457,0.51,0.958,0.765,1.501,0.765c1.899,0,4.596-1.57,8.09-4.711
		c3.494-3.14,5.784-6.714,6.87-10.721L368.805,404.777z"/>
	<path fill="#2388BE" d="M407.633,403.453c3.326,0,6.094,1.324,8.301,3.972c2.207,2.648,3.311,6.333,3.311,11.052
		c0,7.537-2.648,14.303-7.945,20.295c-5.296,5.992-10.898,8.988-16.806,8.988c-3.634,0-6.562-1.188-8.785-3.564
		c-2.225-2.376-3.336-5.619-3.336-9.728c0-7.13,2.037-13.716,6.111-19.76C393.609,407.205,399.993,403.453,407.633,403.453z
		 M403.304,407.272c-2.887,0-5.679,2.063-8.378,6.188s-4.049,9.821-4.049,17.087c0,4.414,0.832,7.894,2.496,10.439
		c1.222,1.868,2.852,2.802,4.889,2.802c2.852,0,5.449-1.766,7.792-5.297c2.987-4.583,4.481-10.27,4.481-17.061
		c0-5.093-0.688-8.726-2.063-10.898S405.374,407.272,403.304,407.272z"/>
	<path fill="#2388BE" d="M438.342,395.61l8.086-3.103l-3.659,14.255h10.546l-0.814,3.616h-10.554l-4.443,17.067
		c-1.41,5.124-2.115,8.687-2.115,10.688c0,0.917,0.195,1.579,0.586,1.986c0.39,0.407,0.925,0.611,1.604,0.611
		c1.052,0,2.665-0.628,4.838-1.885c2.853-1.663,5.568-3.548,8.148-5.653l1.936,2.343c-7.436,5.603-12.41,9.032-14.922,10.288
		c-2.513,1.255-4.532,1.884-6.061,1.884c-1.257,0-2.25-0.458-2.979-1.375c-0.73-0.917-1.095-2.41-1.095-4.481
		c0-2.444,0.645-6.179,1.936-11.204l5.184-20.27h-8.25l0.917-3.616h8.259L438.342,395.61z"/>
	<path fill="#2388BE" d="M459.069,415.268l-2.241-1.732c3.391-3.734,6.485-6.391,9.283-7.97s5.18-2.368,7.146-2.368
		c1.086,0,1.917,0.238,2.493,0.713c0.575,0.476,0.864,1.12,0.864,1.936c0,0.985-1.101,5.161-3.302,12.528
		c-3.588,12.053-5.383,19.319-5.383,21.797c0,0.476,0.118,0.874,0.356,1.197c0.237,0.322,0.492,0.483,0.764,0.483
		c1.087,0,3.871-2.104,8.353-6.315l1.986,1.936c-4.652,4.38-8.047,7.181-10.186,8.403c-2.139,1.222-3.889,1.833-5.246,1.833
		c-1.188,0-2.131-0.374-2.826-1.12c-0.696-0.746-1.044-1.782-1.044-3.106c0-4.244,2.546-14.616,7.639-31.117
		c0.237-0.78,0.357-1.477,0.357-2.088c0-0.679-0.306-1.019-0.917-1.019c-0.68,0-1.451,0.272-2.317,0.814
		C463.983,410.617,462.057,412.348,459.069,415.268z M479.084,381.553c1.052,0,1.918,0.349,2.598,1.044
		c0.679,0.696,1.019,1.588,1.019,2.674c0,1.494-0.519,2.81-1.554,3.947c-1.036,1.138-2.198,1.706-3.488,1.706
		c-1.019,0-1.868-0.356-2.547-1.069c-0.68-0.713-1.019-1.646-1.019-2.802c0-1.527,0.492-2.826,1.478-3.896
		C476.555,382.088,477.726,381.553,479.084,381.553z"/>
	<path fill="#2388BE" d="M509.132,433.5l1.681,2.241c-8.319,7.911-15.449,11.866-21.39,11.866c-2.411,0-4.253-0.814-5.526-2.444
		c-1.272-1.63-1.909-4.244-1.909-7.843c0-7.266,2.206-14.497,6.62-21.695c4.957-8.183,10.881-12.274,17.774-12.274
		c2.41,0,4.252,0.604,5.525,1.809s1.91,2.86,1.91,4.965c0,2.208-0.765,4.38-2.292,6.52c-1.528,2.139-4.262,4.362-8.199,6.671
		c-1.97,1.121-6.18,3.141-12.631,6.061c-0.305,1.834-0.458,3.583-0.458,5.246c0,2.411,0.382,4.092,1.146,5.041
		c0.765,0.951,1.876,1.427,3.336,1.427c1.392,0,2.92-0.391,4.584-1.172C501.543,438.865,504.819,436.726,509.132,433.5z
		 M491.307,426.116c5.466-2.445,9.574-5.076,12.325-7.895c1.866-1.969,2.801-3.921,2.801-5.856c0-1.459-0.382-2.623-1.146-3.488
		c-0.764-0.866-1.757-1.299-2.979-1.299c-1.257,0-2.479,0.476-3.667,1.426c-1.597,1.257-2.938,3.157-4.023,5.704
		C493.055,418.443,491.951,422.245,491.307,426.116z"/>
	<path fill="#2388BE" d="M519.419,415.42l-1.731-1.782c4.349-4.163,7.814-6.927,10.397-8.291c2.582-1.365,4.791-2.048,6.626-2.048
		c0.713,0,1.274,0.153,1.682,0.459s0.612,0.662,0.612,1.069c0,0.306-0.085,0.849-0.255,1.63l-2.296,10.249
		c3.457-3.841,7.795-7.426,13.016-10.756c2.779-1.733,5.067-2.601,6.864-2.601c1.321,0,2.355,0.426,3.101,1.273
		c0.746,0.85,1.119,2.071,1.119,3.667c0,1.053-0.153,2.241-0.457,3.564c-0.541,2.208-1.962,7.012-4.263,14.413
		c-2.165,6.926-3.247,11.527-3.247,13.802c0,0.696,0.102,1.218,0.305,1.565c0.204,0.349,0.492,0.522,0.866,0.522
		c0.984,0,2.529-0.95,4.635-2.853c1.493-1.357,2.987-2.613,4.481-3.769l1.273,1.834c-3.124,3.446-6.366,6.217-9.728,8.312
		c-2.139,1.351-3.905,2.026-5.297,2.026c-1.29,0-2.291-0.467-3.005-1.4c-0.713-0.934-1.069-2.452-1.069-4.558
		c0-3.021,1.885-10.542,5.653-22.562c1.153-4.277,1.731-6.773,1.731-7.486c0-1.052-0.629-1.579-1.884-1.579
		c-1.358,0-3.107,0.715-5.246,2.143c-3.191,2.107-5.856,4.59-7.996,7.445c-1.357,1.837-2.495,4.761-3.412,8.772l-4.125,17.799
		h-7.588c1.426-5.1,2.665-9.979,3.718-14.637l4.532-19.38c0.17-0.781,0.255-1.343,0.255-1.683c0-0.917-0.34-1.376-1.019-1.376
		c-0.544,0-1.324,0.359-2.343,1.078C523.221,411.689,521.252,413.401,519.419,415.42z"/>
	<path fill="#2388BE" d="M580.125,395.61l8.086-3.103l-3.659,14.255h10.546l-0.814,3.616h-10.554l-4.443,17.067
		c-1.41,5.124-2.115,8.687-2.115,10.688c0,0.917,0.195,1.579,0.586,1.986c0.39,0.407,0.925,0.611,1.604,0.611
		c1.052,0,2.665-0.628,4.838-1.885c2.853-1.663,5.568-3.548,8.148-5.653l1.936,2.343c-7.436,5.603-12.41,9.032-14.922,10.288
		c-2.513,1.255-4.532,1.884-6.061,1.884c-1.257,0-2.25-0.458-2.979-1.375c-0.73-0.917-1.095-2.41-1.095-4.481
		c0-2.444,0.645-6.179,1.936-11.204l5.184-20.27h-8.25l0.917-3.616h8.259L580.125,395.61z"/>
</g>
</svg>
