<?xml version="1.0" encoding="utf-8"?>
<!-- Generator: Adobe Illustrator 15.0.0, SVG Export Plug-In . SVG Version: 6.00 Build 0)  -->
<!DOCTYPE svg PUBLIC "-//W3C//DTD SVG 1.1//EN" "http://www.w3.org/Graphics/SVG/1.1/DTD/svg11.dtd">
<svg version="1.1" id="图层_1" xmlns="http://www.w3.org/2000/svg" xmlns:xlink="http://www.w3.org/1999/xlink" x="0px" y="0px"
	 width="595.281px" height="841.89px" viewBox="0 0 595.281 841.89" enable-background="new 0 0 595.281 841.89"
	 xml:space="preserve">
<g>
	
		<image overflow="visible" width="1690" height="285" xlink:href="EF9B30B.jpg"  transform="matrix(0.351 0 0 0.351 2.1401 378.418)">
	</image>
	<g>
		<defs>
			<path id="SVGID_1_" d="M61.133,413.947c-2.238,3.239-5.534,5.854-9.888,7.841c-4.354,1.988-9.196,2.981-14.523,2.981
				c-0.82,0-2.101-0.052-3.842-0.154l-4.134,16c-0.684,2.705-1.455,5.375-2.31,8.012c2.668,0.649,4.995,0.975,6.979,0.975
				c2.497,0,5.184-0.48,8.057-1.44l-0.617,2.88c-2.67,0.72-4.931,1.08-6.779,1.08c-1.78,0-4.383-0.189-7.807-0.565
				c-2.739-0.344-4.964-0.515-6.676-0.515c-3.321,0-6.728,0.394-10.22,1.183l0.617-2.726c3.562-0.582,5.993-1.421,7.294-2.52
				c1.849-1.542,3.355-4.644,4.521-9.305l7.753-30.795c0.341-1.44,0.513-2.451,0.513-3.034c0-0.548-0.223-1.037-0.667-1.465
				c-0.445-0.428-0.976-0.643-1.593-0.643c-0.238,0-0.581,0.036-1.026,0.103l0.616-2.313c4.974-0.481,9.228-1.168,12.762-2.061
				c-0.847,2.405-1.762,5.55-2.744,9.434l-3.885,14.478l4.73,0.257c2.193,0.102,4.584-0.446,7.172-1.646
				c2.588-1.199,4.902-3.307,6.942-6.324c2.04-3.015,3.059-6.271,3.059-9.768c0-3.461-1.24-6.203-3.724-8.226
				c-2.482-2.021-6.274-3.032-11.376-3.032c-5.821,0-11.521,1.447-17.102,4.344c-5.582,2.896-9.888,6.598-12.917,11.105
				c-3.029,4.507-4.545,8.954-4.545,13.341c0,2.159,0.394,4.035,1.183,5.63c0.788,1.594,2.193,3.162,4.215,4.704
				c1.679,1.233,2.52,2.434,2.52,3.599c0,0.754-0.276,1.388-0.826,1.902c-0.552,0.514-1.206,0.771-1.962,0.771
				c-2.032,0-3.994-1.389-5.888-4.165c-1.894-2.776-2.84-6.289-2.84-10.539c0-7.781,2.983-14.875,8.946-21.284
				c7.814-8.432,18.302-12.648,31.463-12.648c5.004,0,9.108,0.652,12.313,1.954c3.205,1.304,5.604,3.085,7.198,5.347
				c1.594,2.262,2.391,4.713,2.391,7.352C64.489,407.411,63.369,410.708,61.133,413.947L61.133,413.947z M89.68,421.12
				c-1.542,2.159-4.302,4.405-8.276,6.735c-1.989,1.13-6.239,3.171-12.75,6.118c-0.309,1.85-0.463,3.615-0.463,5.295
				c0,2.434,0.386,4.131,1.157,5.09c0.771,0.96,1.894,1.439,3.368,1.439c1.404,0,2.947-0.394,4.626-1.183
				c2.262-1.062,5.57-3.221,9.923-6.478l1.697,2.262c-8.398,7.986-15.595,11.979-21.593,11.979c-2.434,0-4.292-0.822-5.579-2.469
				c-1.285-1.645-1.928-4.284-1.928-7.917c0-7.334,2.228-14.635,6.684-21.901c5.003-8.26,10.984-12.39,17.943-12.39
				c2.433,0,4.293,0.609,5.578,1.825c1.286,1.217,1.928,2.888,1.928,5.013C91.993,416.767,91.223,418.96,89.68,421.12L89.68,421.12z
				 M83.382,413.279c-0.771-0.874-1.773-1.31-3.007-1.31c-1.268,0-2.503,0.48-3.702,1.439c-1.611,1.269-2.965,3.188-4.061,5.758
				c-1.577,3.771-2.691,7.609-3.342,11.517c5.518-2.468,9.666-5.123,12.442-7.969c1.884-1.987,2.828-3.959,2.828-5.912
				C84.539,415.328,84.153,414.153,83.382,413.279L83.382,413.279z M125.309,443.458c-5.347,6.05-11.002,9.075-16.966,9.075
				c-3.668,0-6.624-1.201-8.869-3.6s-3.367-5.672-3.367-9.819c0-7.198,2.056-13.847,6.169-19.948
				c5.175-7.574,11.62-11.361,19.331-11.361c3.359,0,6.152,1.337,8.381,4.01c2.227,2.673,3.341,6.393,3.341,11.157
				C133.328,430.579,130.656,437.41,125.309,443.458L125.309,443.458z M122.455,414.95c-1.388-2.193-3.128-3.291-5.217-3.291
				c-2.914,0-5.733,2.083-8.458,6.247c-2.726,4.164-4.088,9.915-4.088,17.248c0,4.457,0.839,7.97,2.52,10.54
				c1.234,1.885,2.879,2.827,4.936,2.827c2.878,0,5.501-1.781,7.865-5.347c3.016-4.627,4.524-10.367,4.524-17.223
				C124.537,420.811,123.843,417.144,122.455,414.95L122.455,414.95z M172.716,441.273c-5.173,7.473-10.893,11.207-17.16,11.207
				c-2.466,0-4.932-0.668-7.397-2.004l-4.394,16.966c-0.275,1.028-0.411,1.867-0.411,2.52c0,1.267,0.479,2.176,1.439,2.725
				c1.473,0.856,4.576,1.559,9.305,2.107l-0.668,2.571c-5.519-0.446-9.854-0.669-13.007-0.669c-3.257,0-7.472,0.223-12.647,0.669
				l0.668-2.571c2.605-0.274,4.499-0.995,5.681-2.159c1.183-1.166,2.134-3.239,2.854-6.222l9.306-39.021
				c1.748-7.267,2.622-11.311,2.622-12.133c0-0.892-0.43-1.337-1.286-1.337c-1.508,0-4.388,2.211-8.637,6.633l-2.005-2.057
				c3.118-3.735,6.221-6.495,9.306-8.277c3.084-1.782,5.758-2.673,8.02-2.673c0.856,0,1.533,0.214,2.031,0.642
				c0.497,0.43,0.745,1.054,0.745,1.877c0,0.995-0.111,2.014-0.334,3.059c-0.224,1.046-0.917,3.521-2.083,7.43
				c5.245-5.244,8.825-8.484,10.745-9.718c3.222-2.09,6.169-3.136,8.843-3.136c1.748,0,3.222,0.823,4.421,2.467
				c1.199,1.646,1.8,4.131,1.8,7.456C180.474,425.918,177.887,433.801,172.716,441.273L172.716,441.273z M171.864,416.056
				c-0.873-1.011-2.043-1.517-3.514-1.517c-1.642,0-3.489,0.806-5.541,2.417c-3.181,2.502-5.61,4.986-7.285,7.454
				c-1.197,1.783-2.325,4.868-3.386,9.254l-2.739,11.156c2.704,2.709,5.478,4.063,8.318,4.063c4.107,0,7.71-3.204,10.808-9.614
				c3.098-6.409,4.647-12.664,4.647-18.766C173.172,418.549,172.737,417.067,171.864,416.056L171.864,416.056z M224.126,384.995
				c-0.82,0.708-2.015,1.062-3.585,1.062c-1.025,0-2.476-0.172-4.355-0.514c-1.639-0.274-3.159-0.411-4.56-0.411
				c-1.399,0-2.458,0.29-3.176,0.87c-0.991,0.819-1.888,2.542-2.689,5.168c-0.803,2.627-2.109,7.812-3.919,15.555l-5.129,21.542
				c-2.538,10.796-3.804,16.435-3.804,16.914c0,1.098,0.394,1.645,1.183,1.645c0.753,0,1.85-0.444,3.291-1.336
				c2.846-1.781,5.694-4.062,8.54-6.838l1.748,1.851c-2.674,3.018-5.835,5.768-9.485,8.252c-3.651,2.484-6.658,3.727-9.024,3.727
				c-1.062,0-1.936-0.402-2.621-1.208c-0.686-0.805-1.029-1.91-1.029-3.315c0-2.742,1.061-8.432,3.184-17.068l5.545-22.57
				c2.02-8.156,3.714-13.624,5.083-16.4c2.123-4.2,5.126-7.46,9.011-9.781c3.885-2.322,7.984-3.483,12.298-3.483
				c1.472,0,2.627,0.354,3.465,1.062c0.839,0.708,1.258,1.561,1.258,2.563C225.355,383.383,224.945,384.289,224.126,384.995
				L224.126,384.995z M239.134,421.12c-1.543,2.159-4.302,4.405-8.278,6.735c-1.988,1.13-6.238,3.171-12.75,6.118
				c-0.308,1.85-0.462,3.615-0.462,5.295c0,2.434,0.386,4.131,1.156,5.09c0.771,0.96,1.894,1.439,3.367,1.439
				c1.406,0,2.948-0.394,4.628-1.183c2.262-1.062,5.569-3.221,9.922-6.478l1.696,2.262c-8.397,7.986-15.595,11.979-21.592,11.979
				c-2.434,0-4.293-0.822-5.579-2.469c-1.286-1.645-1.928-4.284-1.928-7.917c0-7.334,2.227-14.635,6.683-21.901
				c5.004-8.26,10.985-12.39,17.943-12.39c2.433,0,4.293,0.609,5.579,1.825c1.285,1.217,1.928,2.888,1.928,5.013
				C241.448,416.767,240.676,418.96,239.134,421.12L239.134,421.12z M232.836,413.279c-0.771-0.874-1.773-1.31-3.008-1.31
				c-1.268,0-2.502,0.48-3.701,1.439c-1.611,1.269-2.965,3.188-4.061,5.758c-1.578,3.771-2.691,7.609-3.342,11.517
				c5.518-2.468,9.665-5.123,12.44-7.969c1.886-1.987,2.828-3.959,2.828-5.912C233.992,415.328,233.607,414.153,232.836,413.279
				L232.836,413.279z M341.287,474.537c-3.877,2.398-8.302,3.599-13.273,3.599c-3.327,0-6.037-0.343-8.128-1.027
				c-2.882-0.96-5.617-2.347-8.206-4.162c-2.591-1.815-6.045-4.967-10.368-9.454c-3.944-4.042-6.524-6.604-7.742-7.683
				s-2.426-1.979-3.626-2.696c-0.652-0.412-2.212-1.097-4.682-2.056c-4.802-1.918-8.455-4.796-10.959-8.632
				s-3.755-8.461-3.755-13.874c0-9.316,3.207-18.154,9.622-26.513c6.415-8.357,14.699-12.537,24.854-12.537
				c4.837,0,8.987,0.968,12.452,2.902c3.465,1.936,6.201,4.787,8.207,8.553c2.007,3.768,3.011,8.014,3.011,12.74
				c0,8.39-2.718,16.489-8.155,24.297s-12.307,12.449-20.608,13.921c3.086,2.88,5.949,5.655,8.59,8.329
				c4.768,4.799,8.095,7.899,9.98,9.307c2.674,1.987,4.988,3.35,6.943,4.086c1.955,0.737,3.738,1.105,5.351,1.105
				c1.371,0,2.605-0.205,3.703-0.616s2.093-1.028,2.984-1.852c0.514-0.48,1.182-1.524,2.006-3.136
				c0.892-1.748,2.022-2.622,3.395-2.622c0.686,0,1.286,0.265,1.8,0.797c0.515,0.531,0.772,1.157,0.772,1.877
				C345.454,471.041,344.064,472.822,341.287,474.537L341.287,474.537z M307.831,445.026c3.313-2.433,6.041-6.264,8.187-11.49
				c2.145-5.227,3.217-11.233,3.217-18.02c0-7.025-1.639-12.5-4.917-16.426c-3.277-3.925-7.302-5.887-12.072-5.887
				c-3.98,0-7.643,1.174-10.99,3.521c-3.347,2.348-6.084,6.016-8.211,11.002c-2.127,4.986-3.191,10.771-3.191,17.351
				c0,7.541,1.665,13.36,4.994,17.455c3.329,4.096,7.48,6.144,12.458,6.144C301.009,448.676,304.519,447.46,307.831,445.026
				L307.831,445.026z M366.326,446.928c0.584,0,1.269-0.257,2.058-0.771c1.131-0.788,3.272-2.775,6.427-5.964l1.696,1.902
				c-6.89,7.164-11.963,10.745-15.218,10.745c-1.098,0-2.03-0.42-2.802-1.259c-0.771-0.84-1.157-2.031-1.157-3.573
				c0-1.782,0.372-4.165,1.113-7.146c-3.048,3.496-6.815,6.564-11.301,9.202c-2.981,1.748-5.567,2.622-7.759,2.622
				c-1.198,0-2.141-0.396-2.824-1.184c-0.686-0.788-1.028-2.042-1.028-3.758c0-1.339,0.154-2.78,0.462-4.324
				c0.446-2.163,1.577-6.504,3.395-13.024c2.296-8.271,3.444-13.231,3.444-14.878c0-0.96-0.343-1.442-1.027-1.442
				c-0.618,0-1.458,0.318-2.52,0.951c-1.063,0.635-2.879,2.168-5.45,4.602l-2.262-1.8c4.593-4.112,8.097-6.812,10.514-8.097
				c2.416-1.286,4.36-1.928,5.835-1.928c0.822,0,1.49,0.3,2.005,0.901c0.515,0.601,0.771,1.536,0.771,2.805
				c0,2.368-1.234,8.186-3.702,17.452c-2.193,8.341-3.29,13.095-3.29,14.261c0,0.721,0.23,1.339,0.693,1.853
				c0.462,0.516,0.968,0.773,1.516,0.773c1.917,0,4.64-1.586,8.166-4.756c3.527-3.17,5.84-6.777,6.935-10.822l5.6-21.13h7.321
				l-4.833,17.968c-2.846,10.436-4.268,16.373-4.268,17.814c0,0.651,0.155,1.149,0.463,1.49
				C365.607,446.757,365.95,446.928,366.326,446.928L366.326,446.928z M409.512,443.458c-5.347,6.05-11.002,9.075-16.966,9.075
				c-3.667,0-6.623-1.201-8.868-3.6s-3.367-5.672-3.367-9.819c0-7.198,2.057-13.847,6.17-19.948
				c5.174-7.574,11.618-11.361,19.33-11.361c3.358,0,6.152,1.337,8.38,4.01c2.229,2.673,3.342,6.393,3.342,11.157
				C417.533,430.579,414.86,437.41,409.512,443.458L409.512,443.458z M406.66,414.95c-1.388-2.193-3.128-3.291-5.219-3.291
				c-2.914,0-5.732,2.083-8.457,6.247c-2.725,4.164-4.087,9.915-4.087,17.248c0,4.457,0.839,7.97,2.519,10.54
				c1.234,1.885,2.879,2.827,4.936,2.827c2.88,0,5.501-1.781,7.866-5.347c3.015-4.627,4.524-10.367,4.524-17.223
				C408.742,420.811,408.047,417.144,406.66,414.95L406.66,414.95z M451.927,411.145l-0.822,3.651h-10.654l-4.485,17.229
				c-1.423,5.172-2.136,8.769-2.136,10.789c0,0.926,0.197,1.594,0.592,2.005s0.934,0.617,1.62,0.617
				c1.062,0,2.689-0.634,4.884-1.901c2.879-1.68,5.62-3.581,8.227-5.708l1.953,2.365c-7.507,5.656-12.528,9.118-15.063,10.386
				c-2.537,1.268-4.576,1.901-6.119,1.901c-1.268,0-2.271-0.462-3.007-1.388c-0.737-0.926-1.105-2.433-1.105-4.524
				c0-2.467,0.651-6.237,1.953-11.311l5.234-20.461h-8.329l0.926-3.651h8.338l2.881-11.258l8.161-3.132l-3.693,14.39H451.927
				L451.927,411.145z M480.024,393.435c-1.046,1.148-2.22,1.721-3.522,1.721c-1.027,0-1.885-0.359-2.57-1.08
				c-0.686-0.719-1.027-1.662-1.027-2.828c0-1.542,0.495-2.853,1.491-3.933c0.993-1.08,2.176-1.619,3.547-1.619
				c1.062,0,1.937,0.351,2.622,1.054s1.027,1.603,1.027,2.699C481.591,390.958,481.069,392.287,480.024,393.435L480.024,393.435z
				 M475.45,410.221c0,0.994-1.111,5.209-3.333,12.647c-3.622,12.167-5.435,19.503-5.435,22.005c0,0.479,0.12,0.882,0.36,1.208
				c0.239,0.325,0.496,0.487,0.771,0.487c1.097,0,3.907-2.124,8.431-6.375l2.005,1.954c-4.695,4.421-8.122,7.249-10.281,8.483
				c-2.159,1.233-3.925,1.85-5.296,1.85c-1.199,0-2.151-0.377-2.854-1.13c-0.703-0.754-1.054-1.8-1.054-3.136
				c0-4.284,2.57-14.756,7.712-31.413c0.239-0.788,0.359-1.491,0.359-2.108c0-0.685-0.309-1.029-0.926-1.029
				c-0.686,0-1.464,0.275-2.339,0.823c-0.873,0.548-2.819,2.296-5.835,5.244l-2.262-1.748c3.422-3.77,6.546-6.452,9.371-8.046
				c2.824-1.593,5.229-2.39,7.214-2.39c1.096,0,1.935,0.239,2.516,0.719C475.159,408.747,475.45,409.397,475.45,410.221
				L475.45,410.221z M510.691,421.12c-1.542,2.159-4.302,4.405-8.277,6.735c-1.988,1.13-6.238,3.171-12.75,6.118
				c-0.309,1.85-0.463,3.615-0.463,5.295c0,2.434,0.386,4.131,1.157,5.09c0.771,0.96,1.894,1.439,3.367,1.439
				c1.404,0,2.947-0.394,4.627-1.183c2.263-1.062,5.569-3.221,9.923-6.478l1.696,2.262c-8.397,7.986-15.595,11.979-21.593,11.979
				c-2.434,0-4.293-0.822-5.579-2.469c-1.284-1.645-1.927-4.284-1.927-7.917c0-7.334,2.228-14.635,6.684-21.901
				c5.003-8.26,10.984-12.39,17.942-12.39c2.434,0,4.292,0.609,5.578,1.825c1.285,1.217,1.928,2.888,1.928,5.013
				C513.004,416.767,512.234,418.96,510.691,421.12L510.691,421.12z M504.393,413.279c-0.771-0.874-1.773-1.31-3.008-1.31
				c-1.269,0-2.502,0.48-3.702,1.439c-1.611,1.269-2.965,3.188-4.061,5.758c-1.577,3.771-2.691,7.609-3.342,11.517
				c5.518-2.468,9.665-5.123,12.441-7.969c1.885-1.987,2.828-3.959,2.828-5.912C505.55,415.328,505.165,414.153,504.393,413.279
				L504.393,413.279z M551.306,446.877c0.993,0,2.553-0.96,4.679-2.88c1.508-1.37,3.016-2.639,4.523-3.805l1.286,1.852
				c-3.153,3.479-6.427,6.276-9.819,8.391c-2.159,1.364-3.942,2.045-5.348,2.045c-1.303,0-2.313-0.471-3.033-1.413
				c-0.72-0.942-1.08-2.476-1.08-4.601c0-3.051,1.902-10.644,5.708-22.776c1.165-4.318,1.747-6.837,1.747-7.557
				c0-1.062-0.635-1.594-1.901-1.594c-1.372,0-3.137,0.722-5.296,2.162c-3.223,2.128-5.912,4.634-8.071,7.517
				c-1.371,1.854-2.52,4.806-3.445,8.854l-4.164,17.969h-7.66c1.439-5.147,2.689-10.073,3.753-14.775l4.575-19.565
				c0.172-0.789,0.257-1.355,0.257-1.698c0-0.927-0.342-1.39-1.027-1.39c-0.549,0-1.337,0.363-2.365,1.088
				c-2.126,1.417-4.113,3.145-5.965,5.184l-1.747-1.8c4.391-4.201,7.89-6.992,10.497-8.37c2.607-1.377,4.837-2.067,6.689-2.067
				c0.72,0,1.286,0.155,1.697,0.463c0.411,0.308,0.617,0.668,0.617,1.08c0,0.308-0.086,0.856-0.257,1.645l-2.317,10.347
				c3.489-3.876,7.87-7.496,13.139-10.858c2.806-1.75,5.115-2.625,6.93-2.625c1.334,0,2.378,0.429,3.131,1.285
				c0.753,0.858,1.13,2.092,1.13,3.702c0,1.063-0.155,2.262-0.462,3.599c-0.547,2.228-1.981,7.078-4.304,14.549
				c-2.186,6.991-3.278,11.637-3.278,13.933c0,0.702,0.104,1.229,0.309,1.581C550.638,446.702,550.928,446.877,551.306,446.877
				L551.306,446.877z M595.058,411.145l-0.822,3.651h-10.655l-4.485,17.229c-1.423,5.172-2.135,8.769-2.135,10.789
				c0,0.926,0.196,1.594,0.591,2.005c0.394,0.411,0.934,0.617,1.62,0.617c1.062,0,2.689-0.634,4.885-1.901
				c2.878-1.68,5.62-3.581,8.226-5.708l1.954,2.365c-7.507,5.656-12.528,9.118-15.064,10.386s-4.576,1.901-6.117,1.901
				c-1.27,0-2.271-0.462-3.009-1.388s-1.104-2.433-1.104-4.524c0-2.467,0.65-6.237,1.953-11.311l5.233-20.461h-8.329l0.926-3.651
				h8.338l2.881-11.258l8.162-3.132l-3.694,14.39H595.058L595.058,411.145z"/>
		</defs>
		<clipPath id="SVGID_2_">
			<use xlink:href="#SVGID_1_"  overflow="visible"/>
		</clipPath>
		<g transform="matrix(1 0 0 1 6.241976e-008 3.934547e-007)" clip-path="url(#SVGID_2_)">
			
				<image overflow="visible" width="1690" height="285" xlink:href="EF9B309.jpg"  transform="matrix(0.351 0 0 0.351 2.1401 378.418)">
			</image>
		</g>
	</g>
</g>
</svg>
